<svg width="47px" height="17px" viewBox="0 0 47 17" version="1.1" xmlns="http://www.w3.org/2000/svg" xmlns:xlink="http://www.w3.org/1999/xlink">
<g fill="#FFFFFF">
<polygon id="Fill-1" points="13.4470298 2.5938862 10.4299596 16.1257634 18.7547316 16.0630967 19.5496088 13.4912897 13.9846439 13.5259213 16.4245211 2.5938862"></polygon>
<path d="M46.2087509,2.59363884 L45.6010491,5.11927042 C39.5677333,4.6047441 37.9911719,6.45670901 37.3983123,8.58325287 C35.8720491,14.0517441 42.5641895,12.9872353 42.5641895,12.9872353 L42.7736281,10.4566564 L40.596786,10.3098845 L40.7839614,7.87825287 L45.8814,7.92525287 L45.2266982,14.8936213 C45.2266982,14.8936213 44.7591719,15.9218494 40.549786,15.9218494 C35.7796982,15.9234985 33.8617684,13.2568669 34.0951193,9.14148094 C34.3292947,5.02527042 37.8674877,3.20134059 40.0979263,2.59363884 C42.3258912,1.98511252 46.2087509,2.59363884 46.2087509,2.59363884" id="Fill-2"></path>
<path d="M9.15180702,6.7714441 C9.15180702,6.7714441 10.8042281,8.0660055 10.7102281,9.70275989 C10.5288246,12.8781459 6.54866667,13.759602 5.65978947,13.7554792 C4.81791228,13.7521809 0,13.8643213 0,13.8643213 L2.65591228,0.536110766 C2.65591228,0.536110766 6.68884211,0.000145853767 8.60677193,0.473444099 C9.90380702,0.793373924 11.3187544,1.40849673 11.2725789,3.6694441 C11.2255789,5.92956691 9.15180702,6.7714441 9.15180702,6.7714441 Z M5.47261404,2.03186515 L4.67773684,5.7737248 C4.67773684,5.7737248 8.56059649,5.7737248 8.46659649,3.98030375 C8.36517544,2.05990024 5.47261404,2.03186515 5.47261404,2.03186515 Z M3.45326316,11.4796897 C3.45326316,11.4796897 6.36561404,12.0304967 7.39714035,9.71430375 C8.27942105,7.73783006 4.21433333,7.67433884 4.21433333,7.67433884 L3.45326316,11.4796897 Z" id="Combined-Shape"></path>
<path d="M27.3112877,6.33976262e-05 C32.2248491,0.0206774327 33.7684281,3.06083533 33.3256386,6.59573006 C32.8309018,10.5437301 29.6810772,13.9664845 26.2360596,14.2319932 C22.7910421,14.497502 19.9710421,11.1761687 20.4385684,7.22404585 C20.9530947,2.87365989 23.6914632,-0.015603269 27.3112877,6.33976262e-05 Z M30.1065509,7.79051954 C30.7274456,5.29127392 29.7569368,2.89922129 27.9387789,2.44736164 C26.1189719,1.99550199 24.1408491,3.6553441 23.5199544,6.15458971 C22.9007088,8.65548445 23.8695684,11.0467125 25.6902,11.4993967 C27.5091825,11.9512564 29.4873053,10.2905897 30.1065509,7.79051954 Z" id="Combined-Shape"></path>
</g>
</svg>